<?xml version="1.0" encoding="iso-8859-1"?>
<!-- Generator: Adobe Illustrator 19.0.0, SVG Export Plug-In . SVG Version: 6.00 Build 0)  -->
<svg xmlns="http://www.w3.org/2000/svg" xmlns:xlink="http://www.w3.org/1999/xlink" version="1.1" id="Layer_1" x="0px" y="0px" viewBox="0 0 508.4 508.4" style="enable-background:new 0 0 508.4 508.4;" xml:space="preserve">
<path style="fill:#0F4260;" d="M504,379c0,68.8-56.4,125.2-125.6,125.2H128.8C60,504.2,4,447.8,4,379V129.4C4,60.6,60,4.2,128.8,4.2  h249.6C447.2,4.2,504,60.6,504,129.4L504,379L504,379z"/>
<path style="fill:#FFFFFF;" d="M206,368.2c2.8,7.6,7.6,14.4,14.8,21.2c7.2,6.8,16,11.6,26.4,15.6c10.4,3.6,18.4,5.2,32,5.2  c12,0,24-1.2,34.4-3.6s19.6-6.8,35.6-13.2v-49.6c-16,10.4-30.8,15.2-46,15.2c-8.4,0-16.4-2-23.2-6.4c-4.8-3.2-10-8.4-12-13.6  c-1.6-4.4-2-14.8-2-32.8v-79.6h71.6V171H266V99.4h-41.6c-2,16-5.2,28.8-10.4,39.2s-12.4,19.2-20.8,26.4  c-8.4,7.6-22.4,12.8-34.4,16.8v44.4h43.6v109.2C202.4,349.8,202.8,360.6,206,368.2"/>
<path d="M279.6,414.2c-14.4,0-23.2-2-33.6-5.6c-11.2-4-20.4-9.2-28.4-16.4c-7.2-6.4-12.4-13.6-15.6-22.8c-3.2-8-3.6-19.6-3.6-34  V230.6h-39.6c-2.4,0-4-1.6-4-4v-44.8c0-1.6,1.2-3.2,2.8-3.6c15.6-5.2,26.8-10.8,32.8-16.4c8.8-8,15.2-16,19.6-24.8  c5.2-10.8,8.8-23.6,10.4-38c0.4-2,2-3.6,4-3.6H266c2.4,0,4,1.6,4,4V167h67.6c2.4,0,4,1.6,4,4s-1.6,4-4,4H266c-2.4,0-4-1.6-4-4v-67.6  h-34c-2,14-5.6,26.4-10.8,36.8c-4.8,10-11.6,18.8-21.2,27.6c-6.8,6-17.6,11.6-32.8,16.8v37.6h39.6c2.4,0,4,1.6,4,4v109.2  c0,13.6,0.4,24.4,3.2,31.2c2.8,8,7.2,14,13.6,19.6c6.8,6.4,15.6,11.2,25.6,14.8c10,3.2,17.6,5.2,31.2,5.2c11.6,0,23.2-1.2,32.8-3.6  c7.2-1.6,14-4.4,23.6-8.4c2.8-1.2,5.6-2.4,8.8-3.6v-39.2c-14.4,8.4-28.4,12.4-42,12.4c-9.6,0-18.8-2.4-26-6.8  c-6-3.6-11.2-9.6-13.2-15.6c-2-6-2.4-15.2-2.4-35.2v-79.6c0-2.4,1.6-4,4-4h71.6c2.4,0,4,1.6,4,4s-1.6,4-4,4H270v75.6  c0,16,0,27.6,2,32.4c1.6,4,5.6,8.8,10,11.2c6,3.6,13.6,5.6,21.6,5.6c14,0,28.4-4.8,44-14.8c1.2-0.8,2.8-0.8,4,0s2,2,2,3.6v49.2  c0,1.6-1.2,3.2-2.4,3.6c-4,1.6-8,3.2-11.2,4.4c-10,4-16.8,6.8-24.8,8.8C304,413,292,414.2,279.6,414.2z"/>
<path d="M378.8,508.2H129.6C58,508.2,0,450.2,0,379V129.4C0,58.2,58,0.2,129.6,0.2h249.6c71.2,0,129.2,58,129.2,129.2V379  C508,450.2,450,508.2,378.8,508.2z M129.6,8.2C62.4,8.2,8,62.6,8,129.4V379c0,66.8,54.4,121.2,121.6,121.2h249.6  c66.8,0,121.2-54.4,121.2-121.2V129.4C500.4,62.6,446,8.2,379.2,8.2H129.6z"/>
<path d="M370.4,484.2h-232c-62,0-114.4-52.4-114.4-114.4V138.2c0-62,52.4-114,114.4-114h230.8c2.4,0,4,1.6,4,4s-1.6,4-4,4H138.4  c-58,0-106.4,48.4-106.4,106v232c0,57.6,48.8,106.4,106.4,106.4h232c57.6,0,106-48.8,106-106.4v-112c0-2.4,1.6-4,4-4s4,1.6,4,4v112  C484,432.2,432,484.2,370.4,484.2z"/>
<path d="M447.2,65.4c-1.2,0-2-0.4-2.8-1.2c-20.4-20.4-48-32-75.2-32c-2.4,0-4-1.6-4-4s1.6-4,4-4c29.6,0,59.2,12.4,80.8,34.4  c1.6,1.6,1.6,4,0,5.6C449.2,65,448.4,65.4,447.2,65.4z"/>
<path d="M480,234.2c-2.4,0-4-1.6-4-4V171c0-2.4,1.6-4,4-4s4,1.6,4,4v59.2C484,232.6,482.4,234.2,480,234.2z"/>
<g>
</g>
<g>
</g>
<g>
</g>
<g>
</g>
<g>
</g>
<g>
</g>
<g>
</g>
<g>
</g>
<g>
</g>
<g>
</g>
<g>
</g>
<g>
</g>
<g>
</g>
<g>
</g>
<g>
</g>
</svg>
