<?xml version="1.0" encoding="iso-8859-1"?>
<!-- Generator: Adobe Illustrator 19.0.0, SVG Export Plug-In . SVG Version: 6.00 Build 0)  -->
<svg xmlns="http://www.w3.org/2000/svg" xmlns:xlink="http://www.w3.org/1999/xlink" version="1.1" id="Layer_1" x="0px" y="0px" viewBox="0 0 508 508" style="enable-background:new 0 0 508 508;" xml:space="preserve">
<path style="fill:#FF5E00;" d="M504,378.4c0,68.8-56,125.6-124.8,125.6H129.6C60.8,504,4,447.6,4,378.4V129.2C4,60.4,60.8,4,129.6,4  h249.6C448,4,504,60,504,129.2V378.4z"/>
<g>
	<path style="fill:#FFFFFF;" d="M372,244c-5.2,0-10.4,1.2-14.8,3.2c-3.2-37.2-32-66.4-67.6-66.4c-8.8,0-16.8,2-24.4,4.8   c-2.8,1.2-3.6,2.4-3.6,4.8v130.8c0,2.4,1.6,4.8,4,4.8c0,0,105.6,0,106.4,0c21.2,0,38.4-18.4,38.4-41.2   C410.4,262.4,393.2,244,372,244"/>
	<path style="fill:#FFFFFF;" d="M168.8,288l-3.2-55.2c0-1.6-1.2-2.4-2.4-2.4s-2.4,1.2-2.4,2.4l-2.4,55.2l2.4,36   c0,1.6,1.6,2.4,3.2,2.4c1.2,0,3.2-1.2,3.2-2.4l0,0L168.8,288z"/>
	<path style="fill:#FFFFFF;" d="M155.6,288l-3.2-34c0-1.2-0.8-2.4-2-2.4s-2,0.8-2,2.4l-2.8,34l2.8,35.6c0,1.2,0.8,2.4,2,2.4   s2-0.8,2-2.4L155.6,288z"/>
	<path style="fill:#FFFFFF;" d="M181.2,288l-2.8-68c0-1.6-1.2-2.8-2.8-2.8s-2.4,1.2-2.8,2.8l-2.4,68l2.4,35.6c0,1.6,1.2,2.8,2.8,2.8   s2.8-1.2,2.8-2.8l0,0L181.2,288z"/>
	<path style="fill:#FFFFFF;" d="M113.6,318.8c0.8,0,1.2-0.4,1.2-1.2l3.6-29.6l-3.6-30c0-0.8-0.8-1.2-1.2-1.2c-0.8,0-1.2,0.4-1.2,1.2   l-3.2,30l3.2,29.6C112,318.4,112.8,318.8,113.6,318.8"/>
	<path style="fill:#FFFFFF;" d="M125.6,324c0.8,0,1.6-0.8,1.6-1.6l3.2-34.4l-3.2-35.6c0-0.8-0.8-1.6-1.6-1.6c-0.8,0-1.6,0.8-1.6,1.6   l-2.8,35.6l2.8,34.4C124,323.2,124.8,324,125.6,324"/>
	<path style="fill:#FFFFFF;" d="M204.4,212c0-2-1.6-3.2-3.2-3.2c-1.6,0-3.2,1.6-3.2,3.2l-2,76.4l2,34.8c0,2,1.6,3.2,3.2,3.2   c1.6,0,3.2-1.6,3.2-3.2l2.4-34.8L204.4,212z"/>
	<path style="fill:#FFFFFF;" d="M138,325.6c0.8,0,1.6-0.8,2-2l3.2-35.6l-3.2-36.8c0-1.2-0.8-2-2-2s-1.6,0.8-2,2l-2.8,36.8l2.8,35.6   C136.4,324.8,137.2,325.6,138,325.6"/>
	<path style="fill:#FFFFFF;" d="M193.2,288l-2-73.6c0-1.6-1.2-3.2-2.8-3.2s-2.8,1.2-2.8,3.2l-2,73.6l2,35.2c0,1.6,0.8,3.2,2.4,3.2   c1.6,0,2.4-1.2,2.4-3.2l0,0L193.2,288z"/>
	<path style="fill:#FFFFFF;" d="M219.6,288l-2-74.4c0-2-1.6-3.6-3.6-3.6s-3.2,1.6-3.6,3.6l-2,74.4l2,34.8c0,2,1.6,3.6,3.6,3.6   s3.2-1.6,3.6-3.6L219.6,288z"/>
	<path style="fill:#FFFFFF;" d="M102,268c-0.8,0-1.2,0.4-1.2,1.2L98.4,288l2.4,18.4c0,0.8,0.8,1.2,1.2,1.2c0.8,0,1.2-0.4,1.2-1.2   L106,288l-2.8-18.8C103.2,268.8,102.4,268,102,268"/>
	<path style="fill:#FFFFFF;" d="M246.8,288l-2-85.2c0-2.4-2-4-4-4s-4,2-4,4l-1.6,85.2l1.6,34.4c0,2.4,2.4,4.4,4.8,4.4   c2,0,4.8-2,4.8-4.4l0,0L246.8,288z"/>
	<path style="fill:#FFFFFF;" d="M253.6,190.8c-2.4,0-4.4,2-4.4,4.4l-1.6,92.8l1.6,33.6c0,2.4,2,4.4,4.4,4.4s4.4-2,4.4-4.4l0,0   l2-33.6l-2-92.8C258,192.8,256,190.8,253.6,190.8"/>
	<path style="fill:#FFFFFF;" d="M232.4,288l-1.6-71.6c0-2-1.6-4-3.6-4s-3.6,1.6-3.6,4L222,288l1.6,34.4c0,2,1.2,4,3.2,4   s3.2-1.6,3.2-4l0,0L232.4,288z"/>
</g>
<path d="M378.4,508H128.8C58,508,0,450,0,378.8V129.6C0,58,58,0,128.8,0h249.6C450,0,508,58,508,129.6v249.6  C508,450,450,508,378.4,508z M128.8,8C62.4,8,8,62.4,8,129.6v249.6C8,446,62.4,500,128.8,500h249.6c67.2,0,121.6-54.4,121.6-120.8  V129.6C500,62.8,445.6,8,378.4,8C378.4,8,128.8,8,128.8,8z"/>
<path d="M369.6,484h-232c-62.8,0-114-51.2-114-114V138c0-62,52-114.4,114-114.4h231.2c2.4,0,4,1.6,4,4s-1.6,4-4,4H137.6  C80.4,32,32,80.4,32,138.4v232c0,58.4,47.6,106,106,106h232c57.6,0,106.4-48.4,106.4-106V258c0-2.4,1.6-4,4-4s4,1.6,4,4v112.4  C484,432,431.6,484,369.6,484z"/>
<path d="M446.8,65.2c-1.2,0-2-0.4-2.8-1.2c-20.4-20.4-47.6-32.4-74.8-32.4c-2.4,0-4-1.6-4-4s1.6-4,4-4c29.2,0,58.4,12.8,80.4,34.4  c1.6,1.6,1.6,4,0,5.6C448.8,64.8,447.6,65.2,446.8,65.2z"/>
<path d="M480,234c-2.4,0-4-1.6-4-4v-59.2c0-2.4,1.6-4,4-4s4,1.6,4,4V230C484,232.4,482.4,234,480,234z"/>
<g>
</g>
<g>
</g>
<g>
</g>
<g>
</g>
<g>
</g>
<g>
</g>
<g>
</g>
<g>
</g>
<g>
</g>
<g>
</g>
<g>
</g>
<g>
</g>
<g>
</g>
<g>
</g>
<g>
</g>
</svg>
